<?xml version="1.0" encoding="UTF-8" standalone="no"?>
<!DOCTYPE svg PUBLIC "-//W3C//DTD SVG 1.1//EN"
 "http://www.w3.org/Graphics/SVG/1.1/DTD/svg11.dtd">
<!-- Generated by graphviz version 3.0.0 (20220226.1711)
 -->
<!-- Title: tree Pages: 1 -->
<svg width="548pt" height="450pt"
 viewBox="0.00 0.00 548.24 450.18" xmlns="http://www.w3.org/2000/svg" xmlns:xlink="http://www.w3.org/1999/xlink">
<g id="graph0" class="graph" transform="scale(1 1) rotate(0) translate(4 446.18)">
<title>tree</title>
<polygon fill="white" stroke="transparent" points="-4,4 -4,-446.18 544.24,-446.18 544.24,4 -4,4"/>
<text text-anchor="middle" x="270.12" y="-426.98" font-family="Times,serif" font-size="14.00">Expression Tree</text>
<!-- node_1 -->
<g id="node1" class="node">
<title>node_1</title>
<ellipse fill="none" stroke="black" cx="81.24" cy="-265.94" rx="81.49" ry="81.49"/>
<text text-anchor="middle" x="81.24" y="-262.24" font-family="Times,serif" font-size="14.00"># this is a comment</text>
</g>
<!-- node_2 -->
<g id="node2" class="node">
<title>node_2</title>
<ellipse fill="none" stroke="black" cx="207.24" cy="-401.18" rx="27" ry="18"/>
<text text-anchor="middle" x="207.24" y="-397.48" font-family="Times,serif" font-size="14.00">csv</text>
</g>
<!-- node_2&#45;&#45;node_1 -->
<g id="edge1" class="edge">
<title>node_2&#45;&#45;node_1</title>
<path fill="none" stroke="black" d="M193.52,-385.67C179.74,-371.1 157.61,-347.69 136.62,-325.49"/>
</g>
<!-- node_5 -->
<g id="node5" class="node">
<title>node_5</title>
<ellipse fill="none" stroke="black" cx="207.24" cy="-265.94" rx="27" ry="18"/>
<text text-anchor="middle" x="207.24" y="-262.24" font-family="Times,serif" font-size="14.00">row</text>
</g>
<!-- node_2&#45;&#45;node_5 -->
<g id="edge2" class="edge">
<title>node_2&#45;&#45;node_5</title>
<path fill="none" stroke="black" d="M207.24,-383.03C207.24,-357.45 207.24,-309.56 207.24,-284.02"/>
</g>
<!-- node_12 -->
<g id="node12" class="node">
<title>node_12</title>
<ellipse fill="none" stroke="black" cx="396.24" cy="-265.94" rx="27" ry="18"/>
<text text-anchor="middle" x="396.24" y="-262.24" font-family="Times,serif" font-size="14.00">row</text>
</g>
<!-- node_2&#45;&#45;node_12 -->
<g id="edge3" class="edge">
<title>node_2&#45;&#45;node_12</title>
<path fill="none" stroke="black" d="M225.36,-387.4C261.58,-361.87 342.51,-304.82 378.45,-279.48"/>
</g>
<!-- node_3 -->
<g id="node3" class="node">
<title>node_3</title>
<ellipse fill="none" stroke="black" cx="81.24" cy="-38.35" rx="38.19" ry="38.19"/>
<text text-anchor="middle" x="81.24" y="-34.65" font-family="Times,serif" font-size="14.00">value11</text>
</g>
<!-- node_4 -->
<g id="node4" class="node">
<title>node_4</title>
<ellipse fill="none" stroke="black" cx="81.24" cy="-130.69" rx="27" ry="18"/>
<text text-anchor="middle" x="81.24" y="-126.99" font-family="Times,serif" font-size="14.00">cell</text>
</g>
<!-- node_4&#45;&#45;node_3 -->
<g id="edge4" class="edge">
<title>node_4&#45;&#45;node_3</title>
<path fill="none" stroke="black" d="M81.24,-112.27C81.24,-102.22 81.24,-89.18 81.24,-76.91"/>
</g>
<!-- node_5&#45;&#45;node_4 -->
<g id="edge5" class="edge">
<title>node_5&#45;&#45;node_4</title>
<path fill="none" stroke="black" d="M202.92,-247.88C197.77,-230.36 187.74,-203.12 171.24,-184.69 161.08,-173.34 125.5,-154.07 102.23,-142.15"/>
</g>
<!-- node_6 -->
<g id="node6" class="node">
<title>node_6</title>
<ellipse fill="none" stroke="black" cx="144.24" cy="-130.69" rx="18" ry="18"/>
<text text-anchor="middle" x="144.24" y="-126.99" font-family="Times,serif" font-size="14.00">,</text>
</g>
<!-- node_5&#45;&#45;node_6 -->
<g id="edge6" class="edge">
<title>node_5&#45;&#45;node_6</title>
<path fill="none" stroke="black" d="M200.17,-248.54C193.07,-232.24 181.72,-206.59 171.24,-184.69 165.09,-171.84 157.72,-157.44 152.24,-146.9"/>
</g>
<!-- node_8 -->
<g id="node8" class="node">
<title>node_8</title>
<ellipse fill="none" stroke="black" cx="207.24" cy="-130.69" rx="27" ry="18"/>
<text text-anchor="middle" x="207.24" y="-126.99" font-family="Times,serif" font-size="14.00">cell</text>
</g>
<!-- node_5&#45;&#45;node_8 -->
<g id="edge7" class="edge">
<title>node_5&#45;&#45;node_8</title>
<path fill="none" stroke="black" d="M207.24,-247.79C207.24,-222.21 207.24,-174.32 207.24,-148.77"/>
</g>
<!-- node_9 -->
<g id="node9" class="node">
<title>node_9</title>
<ellipse fill="none" stroke="black" cx="270.24" cy="-130.69" rx="18" ry="18"/>
</g>
<!-- node_5&#45;&#45;node_9 -->
<g id="edge8" class="edge">
<title>node_5&#45;&#45;node_9</title>
<path fill="none" stroke="black" d="M214.97,-248.6C227.19,-222.75 250.83,-172.75 262.85,-147.34"/>
</g>
<!-- node_7 -->
<g id="node7" class="node">
<title>node_7</title>
<ellipse fill="none" stroke="black" cx="207.24" cy="-38.35" rx="38.19" ry="38.19"/>
<text text-anchor="middle" x="207.24" y="-34.65" font-family="Times,serif" font-size="14.00">value12</text>
</g>
<!-- node_8&#45;&#45;node_7 -->
<g id="edge9" class="edge">
<title>node_8&#45;&#45;node_7</title>
<path fill="none" stroke="black" d="M207.24,-112.27C207.24,-102.22 207.24,-89.18 207.24,-76.91"/>
</g>
<!-- node_10 -->
<g id="node10" class="node">
<title>node_10</title>
<ellipse fill="none" stroke="black" cx="333.24" cy="-38.35" rx="38.19" ry="38.19"/>
<text text-anchor="middle" x="333.24" y="-34.65" font-family="Times,serif" font-size="14.00">value21</text>
</g>
<!-- node_11 -->
<g id="node11" class="node">
<title>node_11</title>
<ellipse fill="none" stroke="black" cx="333.24" cy="-130.69" rx="27" ry="18"/>
<text text-anchor="middle" x="333.24" y="-126.99" font-family="Times,serif" font-size="14.00">cell</text>
</g>
<!-- node_11&#45;&#45;node_10 -->
<g id="edge10" class="edge">
<title>node_11&#45;&#45;node_10</title>
<path fill="none" stroke="black" d="M333.24,-112.27C333.24,-102.22 333.24,-89.18 333.24,-76.91"/>
</g>
<!-- node_12&#45;&#45;node_11 -->
<g id="edge11" class="edge">
<title>node_12&#45;&#45;node_11</title>
<path fill="none" stroke="black" d="M388.52,-248.6C376.43,-223.02 353.16,-173.82 341.03,-148.17"/>
</g>
<!-- node_13 -->
<g id="node13" class="node">
<title>node_13</title>
<ellipse fill="none" stroke="black" cx="396.24" cy="-130.69" rx="18" ry="18"/>
<text text-anchor="middle" x="396.24" y="-126.99" font-family="Times,serif" font-size="14.00">,</text>
</g>
<!-- node_12&#45;&#45;node_13 -->
<g id="edge12" class="edge">
<title>node_12&#45;&#45;node_13</title>
<path fill="none" stroke="black" d="M396.24,-247.79C396.24,-222.21 396.24,-174.32 396.24,-148.77"/>
</g>
<!-- node_15 -->
<g id="node15" class="node">
<title>node_15</title>
<ellipse fill="none" stroke="black" cx="459.24" cy="-130.69" rx="27" ry="18"/>
<text text-anchor="middle" x="459.24" y="-126.99" font-family="Times,serif" font-size="14.00">cell</text>
</g>
<!-- node_12&#45;&#45;node_15 -->
<g id="edge13" class="edge">
<title>node_12&#45;&#45;node_15</title>
<path fill="none" stroke="black" d="M403.97,-248.6C416.06,-223.02 439.32,-173.82 451.45,-148.17"/>
</g>
<!-- node_16 -->
<g id="node16" class="node">
<title>node_16</title>
<ellipse fill="none" stroke="black" cx="522.24" cy="-130.69" rx="18" ry="18"/>
</g>
<!-- node_12&#45;&#45;node_16 -->
<g id="edge14" class="edge">
<title>node_12&#45;&#45;node_16</title>
<path fill="none" stroke="black" d="M409.97,-250.42C434.71,-224.25 486.43,-169.56 510.03,-144.61"/>
</g>
<!-- node_14 -->
<g id="node14" class="node">
<title>node_14</title>
<ellipse fill="none" stroke="black" cx="459.24" cy="-38.35" rx="38.19" ry="38.19"/>
<text text-anchor="middle" x="459.24" y="-34.65" font-family="Times,serif" font-size="14.00">value22</text>
</g>
<!-- node_15&#45;&#45;node_14 -->
<g id="edge15" class="edge">
<title>node_15&#45;&#45;node_14</title>
<path fill="none" stroke="black" d="M459.24,-112.27C459.24,-102.22 459.24,-89.18 459.24,-76.91"/>
</g>
</g>
</svg>
