<?xml version="1.0" encoding="UTF-8" standalone="no"?>
<!DOCTYPE svg PUBLIC "-//W3C//DTD SVG 1.1//EN"
 "http://www.w3.org/Graphics/SVG/1.1/DTD/svg11.dtd">
<!-- Generated by graphviz version 12.2.1 (20241206.2353)
 -->
<!-- Title: tree Pages: 1 -->
<svg width="507pt" height="329pt"
 viewBox="0.00 0.00 507.09 328.68" xmlns="http://www.w3.org/2000/svg" xmlns:xlink="http://www.w3.org/1999/xlink">
<g id="graph0" class="graph" transform="scale(1 1) rotate(0) translate(4 324.68)">
<title>tree</title>
<polygon fill="white" stroke="none" points="-4,4 -4,-324.68 503.09,-324.68 503.09,4 -4,4"/>
<text text-anchor="middle" x="249.55" y="-303.38" font-family="Times,serif" font-size="14.00">Expression Tree</text>
<!-- node_1 -->
<g id="node1" class="node">
<title>node_1</title>
<ellipse fill="none" stroke="black" cx="40.09" cy="-40.09" rx="40.09" ry="40.09"/>
<text text-anchor="middle" x="40.09" y="-35.04" font-family="Times,serif" font-size="14.00">value11</text>
</g>
<!-- node_2 -->
<g id="node2" class="node">
<title>node_2</title>
<ellipse fill="none" stroke="black" cx="40.09" cy="-134.18" rx="27" ry="18"/>
<text text-anchor="middle" x="40.09" y="-129.13" font-family="Times,serif" font-size="14.00">cell</text>
</g>
<!-- node_2&#45;&#45;node_1 -->
<g id="edge1" class="edge">
<title>node_2&#45;&#45;node_1</title>
<path fill="none" stroke="black" d="M40.09,-115.86C40.09,-105.86 40.09,-92.84 40.09,-80.48"/>
</g>
<!-- node_3 -->
<g id="node3" class="node">
<title>node_3</title>
<ellipse fill="none" stroke="black" cx="166.09" cy="-206.18" rx="27" ry="18"/>
<text text-anchor="middle" x="166.09" y="-201.13" font-family="Times,serif" font-size="14.00">row</text>
</g>
<!-- node_3&#45;&#45;node_2 -->
<g id="edge2" class="edge">
<title>node_3&#45;&#45;node_2</title>
<path fill="none" stroke="black" d="M145.85,-193.94C122.33,-180.87 83.78,-159.45 60.29,-146.4"/>
</g>
<!-- node_4 -->
<g id="node4" class="node">
<title>node_4</title>
<ellipse fill="none" stroke="black" cx="103.09" cy="-134.18" rx="18" ry="18"/>
<text text-anchor="middle" x="103.09" y="-129.13" font-family="Times,serif" font-size="14.00">,</text>
</g>
<!-- node_3&#45;&#45;node_4 -->
<g id="edge3" class="edge">
<title>node_3&#45;&#45;node_4</title>
<path fill="none" stroke="black" d="M152.73,-190.34C141.46,-177.82 125.49,-160.07 114.74,-148.12"/>
</g>
<!-- node_6 -->
<g id="node6" class="node">
<title>node_6</title>
<ellipse fill="none" stroke="black" cx="166.09" cy="-134.18" rx="27" ry="18"/>
<text text-anchor="middle" x="166.09" y="-129.13" font-family="Times,serif" font-size="14.00">cell</text>
</g>
<!-- node_3&#45;&#45;node_6 -->
<g id="edge4" class="edge">
<title>node_3&#45;&#45;node_6</title>
<path fill="none" stroke="black" d="M166.09,-187.88C166.09,-177.03 166.09,-163.1 166.09,-152.29"/>
</g>
<!-- node_7 -->
<g id="node7" class="node">
<title>node_7</title>
<ellipse fill="none" stroke="black" cx="229.09" cy="-134.18" rx="18" ry="18"/>
</g>
<!-- node_3&#45;&#45;node_7 -->
<g id="edge5" class="edge">
<title>node_3&#45;&#45;node_7</title>
<path fill="none" stroke="black" d="M179.45,-190.34C190.72,-177.82 206.69,-160.07 217.44,-148.12"/>
</g>
<!-- node_5 -->
<g id="node5" class="node">
<title>node_5</title>
<ellipse fill="none" stroke="black" cx="166.09" cy="-40.09" rx="40.09" ry="40.09"/>
<text text-anchor="middle" x="166.09" y="-35.04" font-family="Times,serif" font-size="14.00">value12</text>
</g>
<!-- node_6&#45;&#45;node_5 -->
<g id="edge6" class="edge">
<title>node_6&#45;&#45;node_5</title>
<path fill="none" stroke="black" d="M166.09,-115.86C166.09,-105.86 166.09,-92.84 166.09,-80.48"/>
</g>
<!-- node_8 -->
<g id="node8" class="node">
<title>node_8</title>
<ellipse fill="none" stroke="black" cx="260.09" cy="-278.18" rx="27" ry="18"/>
<text text-anchor="middle" x="260.09" y="-273.13" font-family="Times,serif" font-size="14.00">csv</text>
</g>
<!-- node_8&#45;&#45;node_3 -->
<g id="edge7" class="edge">
<title>node_8&#45;&#45;node_3</title>
<path fill="none" stroke="black" d="M242.41,-264.02C225.61,-251.5 200.47,-232.79 183.69,-220.29"/>
</g>
<!-- node_11 -->
<g id="node11" class="node">
<title>node_11</title>
<ellipse fill="none" stroke="black" cx="355.09" cy="-206.18" rx="27" ry="18"/>
<text text-anchor="middle" x="355.09" y="-201.13" font-family="Times,serif" font-size="14.00">row</text>
</g>
<!-- node_8&#45;&#45;node_11 -->
<g id="edge8" class="edge">
<title>node_8&#45;&#45;node_11</title>
<path fill="none" stroke="black" d="M277.52,-264.34C294.55,-251.79 320.35,-232.78 337.46,-220.18"/>
</g>
<!-- node_9 -->
<g id="node9" class="node">
<title>node_9</title>
<ellipse fill="none" stroke="black" cx="292.09" cy="-40.09" rx="40.09" ry="40.09"/>
<text text-anchor="middle" x="292.09" y="-35.04" font-family="Times,serif" font-size="14.00">value21</text>
</g>
<!-- node_10 -->
<g id="node10" class="node">
<title>node_10</title>
<ellipse fill="none" stroke="black" cx="292.09" cy="-134.18" rx="27" ry="18"/>
<text text-anchor="middle" x="292.09" y="-129.13" font-family="Times,serif" font-size="14.00">cell</text>
</g>
<!-- node_10&#45;&#45;node_9 -->
<g id="edge9" class="edge">
<title>node_10&#45;&#45;node_9</title>
<path fill="none" stroke="black" d="M292.09,-115.86C292.09,-105.86 292.09,-92.84 292.09,-80.48"/>
</g>
<!-- node_11&#45;&#45;node_10 -->
<g id="edge10" class="edge">
<title>node_11&#45;&#45;node_10</title>
<path fill="none" stroke="black" d="M341.73,-190.34C331.04,-178.46 316.12,-161.88 305.43,-150.01"/>
</g>
<!-- node_12 -->
<g id="node12" class="node">
<title>node_12</title>
<ellipse fill="none" stroke="black" cx="355.09" cy="-134.18" rx="18" ry="18"/>
<text text-anchor="middle" x="355.09" y="-129.13" font-family="Times,serif" font-size="14.00">,</text>
</g>
<!-- node_11&#45;&#45;node_12 -->
<g id="edge11" class="edge">
<title>node_11&#45;&#45;node_12</title>
<path fill="none" stroke="black" d="M355.09,-187.88C355.09,-177.03 355.09,-163.1 355.09,-152.29"/>
</g>
<!-- node_14 -->
<g id="node14" class="node">
<title>node_14</title>
<ellipse fill="none" stroke="black" cx="418.09" cy="-134.18" rx="27" ry="18"/>
<text text-anchor="middle" x="418.09" y="-129.13" font-family="Times,serif" font-size="14.00">cell</text>
</g>
<!-- node_11&#45;&#45;node_14 -->
<g id="edge12" class="edge">
<title>node_11&#45;&#45;node_14</title>
<path fill="none" stroke="black" d="M368.45,-190.34C379.14,-178.46 394.06,-161.88 404.75,-150.01"/>
</g>
<!-- node_15 -->
<g id="node15" class="node">
<title>node_15</title>
<ellipse fill="none" stroke="black" cx="481.09" cy="-134.18" rx="18" ry="18"/>
</g>
<!-- node_11&#45;&#45;node_15 -->
<g id="edge13" class="edge">
<title>node_11&#45;&#45;node_15</title>
<path fill="none" stroke="black" d="M376.19,-194.44C396.39,-184.02 427.63,-167.57 454.09,-152.18 458.02,-149.9 462.2,-147.34 466.07,-144.9"/>
</g>
<!-- node_13 -->
<g id="node13" class="node">
<title>node_13</title>
<ellipse fill="none" stroke="black" cx="418.09" cy="-40.09" rx="40.09" ry="40.09"/>
<text text-anchor="middle" x="418.09" y="-35.04" font-family="Times,serif" font-size="14.00">value22</text>
</g>
<!-- node_14&#45;&#45;node_13 -->
<g id="edge14" class="edge">
<title>node_14&#45;&#45;node_13</title>
<path fill="none" stroke="black" d="M418.09,-115.86C418.09,-105.86 418.09,-92.84 418.09,-80.48"/>
</g>
</g>
</svg>
