<?xml version="1.0" encoding="UTF-8" standalone="no"?>
<!DOCTYPE svg PUBLIC "-//W3C//DTD SVG 1.1//EN"
 "http://www.w3.org/Graphics/SVG/1.1/DTD/svg11.dtd">
<!-- Generated by graphviz version 3.0.0 (20220226.1711)
 -->
<!-- Title: tree Pages: 1 -->
<svg width="352pt" height="355pt"
 viewBox="0.00 0.00 352.00 355.00" xmlns="http://www.w3.org/2000/svg" xmlns:xlink="http://www.w3.org/1999/xlink">
<g id="graph0" class="graph" transform="scale(1 1) rotate(0) translate(4 351)">
<title>tree</title>
<polygon fill="white" stroke="transparent" points="-4,4 -4,-351 348,-351 348,4 -4,4"/>
<text text-anchor="middle" x="172" y="-331.8" font-family="Times,serif" font-size="14.00">Expression Tree</text>
<!-- node_1 -->
<g id="node1" class="node">
<title>node_1</title>
<ellipse fill="none" stroke="black" cx="27" cy="-90" rx="18" ry="18"/>
<text text-anchor="middle" x="27" y="-86.3" font-family="Times,serif" font-size="14.00">x</text>
</g>
<!-- node_2 -->
<g id="node2" class="node">
<title>node_2</title>
<ellipse fill="none" stroke="black" cx="27" cy="-162" rx="27" ry="18"/>
<text text-anchor="middle" x="27" y="-158.3" font-family="Times,serif" font-size="14.00">expr</text>
</g>
<!-- node_2&#45;&#45;node_1 -->
<g id="edge1" class="edge">
<title>node_2&#45;&#45;node_1</title>
<path fill="none" stroke="black" d="M27,-143.7C27,-132.85 27,-118.92 27,-108.1"/>
</g>
<!-- node_3 -->
<g id="node3" class="node">
<title>node_3</title>
<ellipse fill="none" stroke="black" cx="104" cy="-234" rx="27" ry="18"/>
<text text-anchor="middle" x="104" y="-230.3" font-family="Times,serif" font-size="14.00">expr</text>
</g>
<!-- node_3&#45;&#45;node_2 -->
<g id="edge2" class="edge">
<title>node_3&#45;&#45;node_2</title>
<path fill="none" stroke="black" d="M88.42,-218.83C74.97,-206.61 55.66,-189.05 42.3,-176.91"/>
</g>
<!-- node_5 -->
<g id="node5" class="node">
<title>node_5</title>
<ellipse fill="none" stroke="black" cx="104" cy="-162" rx="32.49" ry="18"/>
<text text-anchor="middle" x="104" y="-158.3" font-family="Times,serif" font-size="14.00">addop</text>
</g>
<!-- node_3&#45;&#45;node_5 -->
<g id="edge3" class="edge">
<title>node_3&#45;&#45;node_5</title>
<path fill="none" stroke="black" d="M104,-215.7C104,-204.85 104,-190.92 104,-180.1"/>
</g>
<!-- node_8 -->
<g id="node8" class="node">
<title>node_8</title>
<ellipse fill="none" stroke="black" cx="208" cy="-162" rx="27" ry="18"/>
<text text-anchor="middle" x="208" y="-158.3" font-family="Times,serif" font-size="14.00">expr</text>
</g>
<!-- node_3&#45;&#45;node_8 -->
<g id="edge4" class="edge">
<title>node_3&#45;&#45;node_8</title>
<path fill="none" stroke="black" d="M122.59,-220.49C141.52,-207.74 170.7,-188.11 189.57,-175.41"/>
</g>
<!-- node_4 -->
<g id="node4" class="node">
<title>node_4</title>
<ellipse fill="none" stroke="black" cx="92" cy="-90" rx="18" ry="18"/>
<text text-anchor="middle" x="92" y="-86.3" font-family="Times,serif" font-size="14.00">+</text>
</g>
<!-- node_5&#45;&#45;node_4 -->
<g id="edge5" class="edge">
<title>node_5&#45;&#45;node_4</title>
<path fill="none" stroke="black" d="M101.1,-144.05C99.21,-133.05 96.76,-118.76 94.88,-107.79"/>
</g>
<!-- node_6 -->
<g id="node6" class="node">
<title>node_6</title>
<ellipse fill="none" stroke="black" cx="155" cy="-18" rx="18" ry="18"/>
<text text-anchor="middle" x="155" y="-14.3" font-family="Times,serif" font-size="14.00">y</text>
</g>
<!-- node_7 -->
<g id="node7" class="node">
<title>node_7</title>
<ellipse fill="none" stroke="black" cx="155" cy="-90" rx="27" ry="18"/>
<text text-anchor="middle" x="155" y="-86.3" font-family="Times,serif" font-size="14.00">expr</text>
</g>
<!-- node_7&#45;&#45;node_6 -->
<g id="edge6" class="edge">
<title>node_7&#45;&#45;node_6</title>
<path fill="none" stroke="black" d="M155,-71.7C155,-60.85 155,-46.92 155,-36.1"/>
</g>
<!-- node_8&#45;&#45;node_7 -->
<g id="edge7" class="edge">
<title>node_8&#45;&#45;node_7</title>
<path fill="none" stroke="black" d="M196.24,-145.46C187.45,-133.86 175.5,-118.08 166.73,-106.49"/>
</g>
<!-- node_10 -->
<g id="node10" class="node">
<title>node_10</title>
<ellipse fill="none" stroke="black" cx="236" cy="-90" rx="36.29" ry="18"/>
<text text-anchor="middle" x="236" y="-86.3" font-family="Times,serif" font-size="14.00">multop</text>
</g>
<!-- node_8&#45;&#45;node_10 -->
<g id="edge8" class="edge">
<title>node_8&#45;&#45;node_10</title>
<path fill="none" stroke="black" d="M214.64,-144.41C219.03,-133.41 224.79,-119.03 229.22,-107.96"/>
</g>
<!-- node_12 -->
<g id="node12" class="node">
<title>node_12</title>
<ellipse fill="none" stroke="black" cx="317" cy="-90" rx="27" ry="18"/>
<text text-anchor="middle" x="317" y="-86.3" font-family="Times,serif" font-size="14.00">expr</text>
</g>
<!-- node_8&#45;&#45;node_12 -->
<g id="edge9" class="edge">
<title>node_8&#45;&#45;node_12</title>
<path fill="none" stroke="black" d="M226.99,-148.81C246.99,-135.96 278.31,-115.85 298.23,-103.05"/>
</g>
<!-- node_9 -->
<g id="node9" class="node">
<title>node_9</title>
<ellipse fill="none" stroke="black" cx="236" cy="-18" rx="18" ry="18"/>
<text text-anchor="middle" x="236" y="-14.3" font-family="Times,serif" font-size="14.00">*</text>
</g>
<!-- node_10&#45;&#45;node_9 -->
<g id="edge10" class="edge">
<title>node_10&#45;&#45;node_9</title>
<path fill="none" stroke="black" d="M236,-71.7C236,-60.85 236,-46.92 236,-36.1"/>
</g>
<!-- node_11 -->
<g id="node11" class="node">
<title>node_11</title>
<ellipse fill="none" stroke="black" cx="317" cy="-18" rx="18" ry="18"/>
<text text-anchor="middle" x="317" y="-14.3" font-family="Times,serif" font-size="14.00">5</text>
</g>
<!-- node_12&#45;&#45;node_11 -->
<g id="edge11" class="edge">
<title>node_12&#45;&#45;node_11</title>
<path fill="none" stroke="black" d="M317,-71.7C317,-60.85 317,-46.92 317,-36.1"/>
</g>
<!-- node_13 -->
<g id="node13" class="node">
<title>node_13</title>
<ellipse fill="none" stroke="black" cx="104" cy="-306" rx="27" ry="18"/>
<text text-anchor="middle" x="104" y="-302.3" font-family="Times,serif" font-size="14.00">start</text>
</g>
<!-- node_13&#45;&#45;node_3 -->
<g id="edge12" class="edge">
<title>node_13&#45;&#45;node_3</title>
<path fill="none" stroke="black" d="M104,-287.7C104,-276.85 104,-262.92 104,-252.1"/>
</g>
</g>
</svg>
